<svg width="13px" height="13px" viewBox="0 0 20 20" version="1.1" xmlns="http://www.w3.org/2000/svg" xmlns:xlink="http://www.w3.org/1999/xlink">
    <defs></defs>
    <g stroke="none" stroke-width="1" fill="none" fill-rule="evenodd">
        <g transform="translate(-829.000000, -42.000000)" fill="#748294" fill-rule="nonzero">
            <path d="M843.319857,54.9056439 L848.707107,60.2928932 C849.097631,60.6834175 849.097631,61.3165825 848.707107,61.7071068 C848.316582,62.0976311 847.683418,62.0976311 847.292893,61.7071068 L841.905644,56.3198574 C840.55096,57.3729184 838.848711,58 837,58 C832.581722,58 829,54.418278 829,50 C829,45.581722 832.581722,42 837,42 C841.418278,42 845,45.581722 845,50 C845,51.8487115 844.372918,53.5509601 843.319857,54.9056439 Z M837,56 C840.313708,56 843,53.3137085 843,50 C843,46.6862915 840.313708,44 837,44 C833.686292,44 831,46.6862915 831,50 C831,53.3137085 833.686292,56 837,56 Z" id="Mask"></path>
        </g>
    </g>
</svg>
